<svg width="426" height="100" viewBox="0 0 426 100" fill="none" xmlns="http://www.w3.org/2000/svg">
<path fill-rule="evenodd" clip-rule="evenodd" d="M172.102 43.5289C171.253 43.6791 170.44 43.8495 169.663 44.04V51.4C169.927 51.3017 170.197 51.2084 170.473 51.12C170.755 51.0295 171.043 50.9441 171.337 50.864C171.909 50.7081 172.503 50.5719 173.12 50.4554C173.22 50.4364 173.321 50.4179 173.423 50.4C173.566 50.3725 173.709 50.3463 173.85 50.3217C174.296 50.2437 174.731 50.1799 175.157 50.1303C175.186 50.1269 175.215 50.1237 175.243 50.1204C175.286 50.1157 175.328 50.1111 175.37 50.1066C176.039 50.0355 176.684 50 177.303 50C177.426 50 177.546 50.0012 177.663 50.0037C178.208 50.015 178.688 50.0528 179.103 50.1171C179.661 50.2036 180.101 50.3379 180.423 50.52C180.638 50.6321 180.82 50.7803 180.97 50.9645C181.161 51.2008 181.299 51.4963 181.383 51.8512C181.42 52.0091 181.447 52.1787 181.463 52.36C181.452 52.3602 181.441 52.3603 181.43 52.3605C181.414 52.3608 181.399 52.361 181.383 52.3613C180.701 52.3732 180.047 52.4007 179.419 52.444C179.39 52.446 179.361 52.448 179.332 52.4501C179.296 52.4527 179.259 52.4553 179.223 52.4581C178.551 52.5083 177.911 52.5769 177.303 52.6638C177.08 52.6957 176.862 52.73 176.647 52.7668C176.622 52.771 176.598 52.7753 176.573 52.7796C176.529 52.7874 176.485 52.7952 176.441 52.8031C176.268 52.8345 176.098 52.8675 175.93 52.9022C175.652 52.9599 175.382 53.0221 175.12 53.0888C174.73 53.188 174.358 53.2973 174.003 53.4166C173.988 53.4216 173.973 53.4267 173.958 53.4318C173.827 53.4766 173.697 53.5228 173.571 53.5703C173.417 53.628 173.267 53.6878 173.12 53.7497C172.3 54.0957 171.591 54.506 170.995 54.9807C170.566 55.3229 170.195 55.6986 169.882 56.1077C169.226 56.965 168.827 57.9691 168.683 59.12C168.643 59.4419 168.623 59.7752 168.623 60.12C168.623 60.1879 168.624 60.2552 168.625 60.3221C168.664 62.1712 169.236 63.6105 170.343 64.64C170.811 65.0756 171.351 65.4223 171.961 65.68C172.399 65.8646 172.873 66.0036 173.383 66.0969C173.412 66.1022 173.441 66.1074 173.471 66.1124C173.967 66.1975 174.498 66.24 175.063 66.24C175.082 66.24 175.101 66.2399 175.12 66.2398C176.234 66.2337 177.218 66.0471 178.072 65.68C178.364 65.5544 178.641 65.4078 178.903 65.24C179.012 65.1718 179.119 65.1026 179.223 65.0324C180.137 64.4168 180.857 63.726 181.383 62.96V65.68H191.943V59.12H190.183V51.72C190.183 51.5164 190.179 51.3164 190.171 51.12C190.143 50.4059 190.063 49.7392 189.932 49.12C189.565 47.389 188.795 46.029 187.623 45.04C187.428 44.8752 187.218 44.7198 186.993 44.5738C186.482 44.2428 185.896 43.9604 185.232 43.7264C184.854 43.5927 184.45 43.4749 184.021 43.3729C182.641 43.0443 181.001 42.88 179.103 42.88C178.509 42.88 177.909 42.8952 177.303 42.9257C176.583 42.9618 175.856 43.0195 175.12 43.0986C174.836 43.1292 174.55 43.163 174.263 43.2C173.875 43.25 173.494 43.3037 173.12 43.361C172.811 43.4083 172.507 43.4581 172.207 43.5104C172.172 43.5165 172.137 43.5227 172.102 43.5289ZM177.662 57.9756C177.66 57.986 177.658 57.9965 177.656 58.007C177.634 58.1307 177.623 58.2617 177.623 58.4C177.623 58.7944 177.724 59.1282 177.926 59.4015C177.956 59.4423 177.988 59.4819 178.023 59.52C178.316 59.7867 178.716 59.92 179.223 59.92C179.329 59.92 179.431 59.9132 179.529 59.8995C179.7 59.8758 179.859 59.8316 180.007 59.7669C180.023 59.7598 180.04 59.7524 180.056 59.7449C180.36 59.5999 180.616 59.3649 180.823 59.04C180.943 58.8515 181.044 58.6381 181.125 58.4C181.297 57.8972 181.383 57.2839 181.383 56.56V56.32C181.226 56.32 181.073 56.3228 180.925 56.3283C180.274 56.3524 179.711 56.4297 179.238 56.56C179.233 56.5613 179.228 56.5627 179.223 56.564C178.988 56.6295 178.774 56.7081 178.583 56.8C178.345 56.9189 178.152 57.0672 178.002 57.245C177.83 57.4495 177.717 57.6931 177.662 57.9756ZM167.12 34.56H149.48L145.48 47.04L141.32 34.56H123V41.12H125V59.12H123V65.68H136.12V59.12H134.2V45.32L141.2 65.68H147.12L153.92 45.12V59.12H152V65.68H167.12V59.12H165.12V41.12H167.12V34.56ZM170.683 73.68H115V51.12H117V49.12H115V26.56H175.12V35.0603C176.457 34.9409 177.785 34.88 179.103 34.88C181.072 34.88 183.169 35.0201 185.232 35.4477V26.56H212.192V34.8982C213.06 34.9378 213.935 35.0433 214.804 35.226V26.56H238.964V35.44H239.844V35.5056C241.699 35.0722 243.617 34.88 245.543 34.88C247.372 34.88 249.198 35.0518 250.971 35.44H272.678C274.062 35.0727 275.524 34.88 277.057 34.88C279.995 34.88 283.093 35.6088 285.716 37.5143C288.318 35.7267 291.401 34.88 294.628 34.88C296.015 34.88 297.403 35.0581 298.754 35.44H316.992V26.56H341.232C346.833 26.56 352.169 28.042 356.47 31.6623L357.874 26.56H384.625L385.938 31.3295C390.409 27.4797 396.085 26 401.985 26C408.239 26 414.255 27.6631 418.823 32.0858C423.707 36.7864 425.265 43.4474 425.265 50.12C425.265 56.7926 423.707 63.4536 418.823 68.1542C414.255 72.5769 408.239 74.24 401.985 74.24C399.56 74.24 397.172 73.9899 394.89 73.4278V73.68H347.61V72.9724C345.553 73.4574 343.412 73.68 341.232 73.68H316.992V71.3215C316.164 73.9185 314.763 76.3743 312.533 78.3964C308.564 82.0217 303.378 83.12 298.468 83.12C296.178 83.12 293.936 82.961 291.75 82.6297L291.741 82.6284L291.732 82.627C289.795 82.329 287.862 81.928 286.191 81.3244L280.908 79.4167V73.68H250.976C249.202 74.0677 247.376 74.24 245.543 74.24C243.079 74.24 240.627 73.9286 238.3 73.2011C237.65 74.7985 236.758 76.3218 235.553 77.6987C232.038 81.7429 227.168 83.12 222.524 83.12C220.979 83.12 219.434 82.9885 217.894 82.7385C216.56 82.526 215.29 82.2759 214.143 81.9699L208.204 80.3862V73.68H179.373C177.932 74.0755 176.475 74.24 175.063 74.24C173.628 74.24 172.144 74.075 170.683 73.68ZM205.872 65.68V59.12H204.192V52.56C204.192 51.9822 204.284 51.5022 204.468 51.12C204.762 50.5066 205.292 50.1452 206.059 50.0357C206.226 50.0119 206.404 50 206.592 50C207.339 50 207.899 50.2133 208.272 50.64C208.34 50.7122 208.401 50.7923 208.457 50.8802C208.503 50.9545 208.546 51.0345 208.584 51.12C208.75 51.4933 208.832 51.9733 208.832 52.56V59.12H207.152V65.68H219.792V59.12H218.033V50.68C218.033 50.4486 218.027 50.2219 218.017 50C218.005 49.7402 217.986 49.4869 217.961 49.24C217.777 47.4863 217.241 46.0597 216.353 44.96C215.923 44.4151 215.407 43.9772 214.804 43.6464C214.669 43.5722 214.529 43.5034 214.386 43.44C213.742 43.1562 213.011 42.9802 212.192 42.9122C212.117 42.9059 212.041 42.9006 211.964 42.8961C211.778 42.8854 211.587 42.88 211.393 42.88C211.234 42.88 211.078 42.8833 210.924 42.89C209.597 42.9472 208.42 43.2505 207.392 43.8C207.121 43.945 206.855 44.1072 206.592 44.2865C205.746 44.8656 204.946 45.6234 204.192 46.56V34.56H193.232V41.12H194.993V59.12H193.232V65.68H205.872ZM219.964 43.44V50H222.644V65.12C222.644 65.3167 222.633 65.5034 222.612 65.68C222.54 66.2685 222.348 66.7451 222.037 67.1096C221.814 67.3703 221.53 67.5738 221.185 67.72C220.921 67.832 220.621 67.9103 220.285 67.9551C220.276 67.9563 220.268 67.9574 220.259 67.9585C220.11 67.9775 219.955 67.9899 219.792 67.9959C219.718 67.9986 219.642 68 219.564 68C219.043 68 218.484 67.974 217.889 67.9219C217.357 67.8754 216.795 67.8081 216.204 67.72V74.24C217.004 74.4533 217.991 74.6533 219.164 74.84C219.298 74.8618 219.431 74.8823 219.564 74.9015C220.572 75.0472 221.558 75.12 222.524 75.12C223.245 75.12 223.924 75.0723 224.561 74.977C226.68 74.6595 228.335 73.8139 229.524 72.44C230.283 71.5761 230.856 70.484 231.243 69.1638C231.246 69.1522 231.249 69.1406 231.253 69.1289C231.264 69.0918 231.274 69.0545 231.285 69.017C231.658 67.6796 231.844 66.1139 231.844 64.32V43.44H219.964ZM230.964 41.24V34.56H222.804V41.24H230.964ZM236.663 45.88C235.669 46.8 234.906 47.92 234.375 49.24C233.767 50.7512 233.463 52.5245 233.463 54.56C233.463 58.3733 234.53 61.28 236.663 63.28C237.078 63.664 237.525 64.0107 238.003 64.32C238.254 64.4826 238.513 64.6348 238.782 64.7767C239.118 64.9544 239.467 65.1158 239.831 65.2611C241.461 65.9137 243.366 66.24 245.543 66.24C247.563 66.24 249.347 65.9593 250.897 65.398C251.36 65.2302 251.802 65.0373 252.223 64.8194C253.034 64.3994 253.768 63.8862 254.423 63.28C255.605 62.1717 256.46 60.7851 256.987 59.12C257.101 58.7597 257.2 58.3864 257.283 58C257.51 56.9497 257.623 55.803 257.623 54.56C257.623 53.3172 257.508 52.1705 257.278 51.12C257.193 50.7337 257.093 50.3603 256.977 50C256.455 48.3758 255.617 47.0158 254.463 45.92C253.786 45.2688 253.02 44.7223 252.164 44.2803C251.761 44.0724 251.339 43.8876 250.897 43.7259C249.353 43.162 247.569 42.88 245.543 42.88C243.372 42.88 241.472 43.2089 239.844 43.8666C239.541 43.9889 239.248 44.1226 238.964 44.2677C238.915 44.2926 238.867 44.3179 238.819 44.3435C238.025 44.7647 237.306 45.2769 236.663 45.88ZM243.483 58.0421C243.564 58.2245 243.664 58.3838 243.783 58.52C244.183 58.92 244.77 59.12 245.543 59.12C246.316 59.12 246.89 58.92 247.263 58.52C247.39 58.385 247.496 58.2273 247.583 58.0469C247.666 57.8733 247.731 57.6787 247.777 57.4631C247.346 57.6664 246.936 57.7956 246.576 57.8761C246.575 57.8763 246.575 57.8764 246.574 57.8766C246.137 57.9742 245.776 58 245.543 58C245.327 58 244.965 57.9766 244.517 57.8779L247.863 54.95V54.44L247.859 54.4441L244.449 51.2619C244.957 51.1403 245.352 51.12 245.543 51.12C245.745 51.12 246.11 51.1415 246.57 51.2469C246.593 51.2522 246.616 51.2577 246.64 51.2634C246.98 51.3462 247.369 51.475 247.779 51.6735C247.731 51.448 247.662 51.2473 247.573 51.0715C247.488 50.9055 247.385 50.7616 247.263 50.64C246.89 50.2133 246.316 50 245.543 50C244.77 50 244.183 50.2133 243.783 50.64C243.667 50.7641 243.569 50.9114 243.489 51.0817C243.409 51.2535 243.347 51.4487 243.303 51.6674C243.716 51.4709 244.107 51.344 244.447 51.2624L247.85 54.4529L244.442 57.8609C244.1 57.7808 243.713 57.657 243.305 57.4679C243.347 57.6796 243.407 57.871 243.483 58.0421ZM271.537 65.68V59.12H269.857V52.56C269.857 51.9822 269.948 51.5022 270.132 51.12C270.446 50.465 271.03 50.0973 271.883 50.0169C272.002 50.0056 272.127 50 272.257 50C273.003 50 273.563 50.2133 273.937 50.64C273.972 50.6778 274.005 50.7177 274.037 50.7598C274.118 50.8662 274.188 50.9862 274.248 51.12C274.414 51.4933 274.497 51.9733 274.497 52.56V59.12H272.817V65.68H285.457V59.12H283.697V50.68C283.697 48.2533 283.137 46.3467 282.017 44.96C281.608 44.4423 281.122 44.0212 280.558 43.6968C279.799 43.2604 278.898 42.9988 277.857 42.9122C277.599 42.8907 277.332 42.88 277.057 42.88C276.9 42.88 276.744 42.8836 276.59 42.8909C275.641 42.9358 274.746 43.1188 273.905 43.44C273.33 43.6596 272.781 43.9437 272.257 44.2924C271.387 44.8707 270.587 45.6266 269.857 46.56V43.44H258.897V50H260.657V59.12H258.897V65.68H271.537ZM290.531 43.9254C289.729 44.417 289.042 45.0818 288.468 45.92C287.624 47.1779 287.042 48.7646 286.722 50.68C286.697 50.8248 286.675 50.9715 286.654 51.12C286.503 52.1724 286.428 53.3191 286.428 54.56C286.428 56.094 286.543 57.4839 286.773 58.7297C286.797 58.8614 286.822 58.9915 286.849 59.12C287.186 60.7341 287.726 62.0941 288.468 63.2C288.759 63.6247 289.079 64.005 289.428 64.3407C290.03 64.9194 290.718 65.3658 291.494 65.68C292.096 65.9237 292.75 66.0879 293.457 66.1725C293.663 66.1973 293.875 66.2152 294.091 66.2264C294.267 66.2355 294.446 66.24 294.628 66.24C295.293 66.24 295.92 66.1603 296.508 66.001C297.123 65.8344 297.697 65.5807 298.228 65.24C298.249 65.2269 298.27 65.2137 298.291 65.2005C298.323 65.1799 298.356 65.1592 298.388 65.1385C298.428 65.1124 298.468 65.0862 298.508 65.0598C298.695 64.9363 298.874 64.8097 299.048 64.68C299.748 64.1564 300.341 63.5831 300.828 62.96V64.68C300.828 65.7396 300.591 66.5159 300.115 67.009C300.108 67.0163 300.101 67.0236 300.094 67.0309C300.001 67.1245 299.899 67.2075 299.788 67.28C299.732 67.3205 299.673 67.3592 299.61 67.3963C299.602 67.4013 299.594 67.4062 299.585 67.4112C299.283 67.5867 298.91 67.723 298.468 67.82C298.02 67.9184 297.5 67.9765 296.908 67.9942C296.778 67.9981 296.645 68 296.508 68C295.903 68 295.276 67.9815 294.628 67.9445C294.42 67.9326 294.21 67.9188 293.997 67.9031C293.992 67.9028 293.986 67.9024 293.981 67.902C293.808 67.8891 293.633 67.875 293.457 67.8595C292.713 67.7946 291.944 67.7071 291.148 67.597C290.423 67.4967 289.676 67.3777 288.908 67.24V73.8C289.868 74.1467 291.215 74.4533 292.948 74.72C294.1 74.8946 295.287 75.012 296.508 75.0723C297.152 75.1041 297.805 75.12 298.468 75.12C300.242 75.12 301.811 74.9347 303.176 74.5643C304.785 74.1272 306.109 73.4325 307.148 72.48C309.068 70.7467 310.028 67.9467 310.028 64.08V50H311.788V43.44H300.828V46.16C300.221 45.3826 299.447 44.6827 298.508 44.0602C298.416 43.9994 298.323 43.9393 298.228 43.88C297.966 43.7122 297.695 43.5656 297.413 43.44C296.574 43.0667 295.646 42.88 294.628 42.88C294.458 42.88 294.291 42.8839 294.127 42.8918C293.674 42.9135 293.241 42.9651 292.828 43.0465C291.98 43.2136 291.214 43.5066 290.531 43.9254ZM300.228 50.64C300.479 50.8904 300.651 51.2349 300.744 51.6735C300.334 51.475 299.945 51.3462 299.605 51.2634C299.581 51.2577 299.558 51.2522 299.535 51.2469C299.075 51.1415 298.71 51.12 298.508 51.12C298.317 51.12 297.922 51.1403 297.414 51.2619L300.824 54.4441L300.828 54.44V54.95L298.548 56.945L298.544 56.9484L297.482 57.8779C297.93 57.9766 298.292 58 298.508 58C298.741 58 299.102 57.9742 299.539 57.8766C299.54 57.8764 299.54 57.8763 299.541 57.8761C299.901 57.7956 300.311 57.6664 300.742 57.4631C300.648 57.9028 300.476 58.2551 300.228 58.52C299.855 58.92 299.281 59.12 298.508 59.12C297.735 59.12 297.148 58.92 296.748 58.52C296.517 58.256 296.358 57.9053 296.27 57.4679C296.678 57.657 297.065 57.7808 297.407 57.8609L298.432 56.8361L300.815 54.4529L297.412 51.2624C297.072 51.344 296.681 51.4709 296.268 51.6674C296.355 51.2317 296.515 50.8893 296.748 50.64C297.148 50.2133 297.735 50 298.508 50C299.281 50 299.855 50.2133 300.228 50.64ZM326.992 59.12H324.992V65.68H341.232C343.612 65.68 345.729 65.3335 347.583 64.6405C347.592 64.6373 347.601 64.634 347.61 64.6307C349.214 64.0273 350.622 63.1638 351.832 62.04C352.702 61.2317 353.429 60.2583 354.012 59.12C354.141 58.8682 354.263 58.6084 354.378 58.3405C354.982 56.9325 355.393 55.3016 355.61 53.4478C355.696 52.7074 355.752 51.9315 355.777 51.12C355.787 50.7925 355.792 50.4591 355.792 50.12C355.792 46.336 355.166 43.2796 353.913 40.9507C353.347 39.8986 352.654 38.9951 351.832 38.24C350.613 37.0958 349.194 36.2184 347.575 35.6078C345.723 34.9093 343.609 34.56 341.232 34.56H324.992V41.16H326.992V59.12ZM338.192 59.12H340.512C340.771 59.12 341.011 59.1005 341.232 59.0615C341.788 58.9637 342.228 58.7432 342.552 58.4C342.761 58.1792 342.921 57.902 343.034 57.5684C343.166 57.1767 343.232 56.7072 343.232 56.16V44.08C343.232 43.5358 343.163 43.0666 343.025 42.6724C342.734 41.8411 342.137 41.3437 341.232 41.1801C341.011 41.14 340.771 41.12 340.512 41.12H338.192V59.12ZM357.21 59.12H355.61V65.68H369.29V59.12H366.89L367.53 55.92H372.97L373.61 59.12H371.21V65.68H386.89V59.12H385.29L378.53 34.56H363.97L357.21 59.12ZM370.45 43.72H370.05L368.41 51.68H372.09L370.45 43.72ZM386.72 51.12C386.744 51.9665 386.801 52.7759 386.89 53.5482C387.097 55.3568 387.48 56.962 388.038 58.3636C388.141 58.6227 388.25 58.8748 388.365 59.12C388.968 60.404 389.734 61.4973 390.665 62.4C391.854 63.5408 393.262 64.4274 394.89 65.0599C395.222 65.189 395.564 65.3076 395.914 65.4155C397.7 65.9652 399.724 66.24 401.985 66.24C404.225 66.24 406.228 65.9705 407.996 65.4314C410.08 64.7957 411.837 63.7853 413.265 62.4C415.932 59.84 417.265 55.7467 417.265 50.12C417.265 44.4933 415.932 40.4 413.265 37.84C411.837 36.4547 410.08 35.4443 407.996 34.8086C406.228 34.2695 404.225 34 401.985 34C399.753 34 397.752 34.2679 395.982 34.8038C393.884 35.4392 392.112 36.4512 390.665 37.84C389.82 38.6593 389.111 39.6357 388.536 40.7691C387.316 43.1771 386.705 46.2941 386.705 50.12C386.705 50.4589 386.71 50.7922 386.72 51.12ZM399.68 58.0846C399.758 58.2165 399.846 58.3349 399.945 58.44C400.399 58.8933 401.079 59.12 401.985 59.12C402.892 59.12 403.572 58.88 404.025 58.4C404.114 58.3062 404.194 58.2022 404.265 58.088C404.559 57.6179 404.705 56.9753 404.705 56.16V44.08C404.705 43.2647 404.559 42.6221 404.265 42.152C404.194 42.0378 404.114 41.9338 404.025 41.84C403.572 41.36 402.892 41.12 401.985 41.12C401.079 41.12 400.399 41.36 399.945 41.84C399.857 41.9337 399.777 42.0376 399.706 42.1517C399.412 42.6217 399.265 43.2645 399.265 44.08V56.16C399.265 56.9724 399.404 57.6139 399.68 58.0846Z" fill="white"/>
<path d="M245.7 59.6802C246.533 59.6802 247.151 59.4609 247.553 59.0223C247.984 58.5544 248.2 57.8381 248.2 56.8732V52.4872C248.2 51.5223 247.984 50.8205 247.553 50.3819C247.151 49.9141 246.533 49.6802 245.7 49.6802C244.867 49.6802 244.234 49.9141 243.803 50.3819C243.401 50.8205 243.2 51.5223 243.2 52.4872V56.8732C243.2 57.8381 243.401 58.5544 243.803 59.0223C244.234 59.4609 244.867 59.6802 245.7 59.6802Z" fill="white"/>
<path d="M298.7 59.6802C299.533 59.6802 300.151 59.4609 300.553 59.0223C300.984 58.5544 301.2 57.8381 301.2 56.8732V52.4872C301.2 51.5223 300.984 50.8205 300.553 50.3819C300.151 49.9141 299.533 49.6802 298.7 49.6802C297.867 49.6802 297.234 49.9141 296.803 50.3819C296.401 50.8205 296.2 51.5223 296.2 52.4872V56.8732C296.2 57.8381 296.401 58.5544 296.803 59.0223C297.234 59.4609 297.867 59.6802 298.7 59.6802Z" fill="white"/>
<circle cx="46.0783" cy="53.9215" r="46.0783" fill="url(#paint0_linear_65_91)"/>
<circle cx="46.0783" cy="53.9215" r="36.0783" stroke="white" stroke-opacity="0.2" stroke-width="20"/>
<path d="M21.8487 39.4221C20.2861 35.9125 19.5048 34.1577 20.3393 32.4797C21.1739 30.8017 23.2983 29.8558 27.5472 27.9641L59.3191 13.8183C63.568 11.9266 65.6925 10.9807 67.4979 11.4833C69.3033 11.986 70.0846 13.7408 71.6472 17.2504L89.9613 58.3846C91.5239 61.8942 92.3052 63.6491 91.4706 65.327C90.6361 67.005 88.5117 67.9509 84.2627 69.8426L52.4909 83.9884C48.242 85.8801 46.1175 86.826 44.3121 86.3234C42.5067 85.8208 41.7254 84.0659 40.1628 80.5563L21.8487 39.4221Z" fill="#6732FF"/>
<path d="M20.4831 36.3552C18.9205 32.8456 18.1392 31.0908 18.9737 29.4128C19.8083 27.7348 21.9327 26.7889 26.1816 24.8972L57.9535 10.7514C62.2024 8.85969 64.3269 7.91382 66.1323 8.41644C67.9377 8.91907 68.719 10.6739 70.2816 14.1835L88.5957 55.3177C90.1583 58.8273 90.9396 60.5822 90.105 62.2602C89.2705 63.9382 87.1461 64.884 82.8971 66.7758L51.1253 80.9215C46.8764 82.8132 44.7519 83.7591 42.9465 83.2565C41.1411 82.7539 40.3598 80.999 38.7972 77.4894L20.4831 36.3552Z" fill="#D1D2E6"/>
<path d="M18.0251 30.8347C16.4625 27.3251 15.6812 25.5703 16.5157 23.8923C17.3503 22.2143 19.4747 21.2684 23.7236 19.3767L55.4955 5.23092C59.7444 3.33918 61.8689 2.39332 63.6743 2.89594C65.4797 3.39856 66.261 5.15338 67.8236 8.66303L86.1377 49.7972C87.7003 53.3068 88.4816 55.0617 87.647 56.7396C86.8125 58.4176 84.688 59.3635 80.4391 61.2552L48.6673 75.401C44.4184 77.2927 42.2939 78.2386 40.4885 77.736C38.6831 77.2334 37.9018 75.4785 36.3392 71.9689L18.0251 30.8347Z" fill="white"/>
<path d="M37.0196 51.6654L37.1434 51.1555C37.2721 51.2195 37.4394 51.145 37.6453 50.9321L38.3145 50.6341C38.4539 50.572 38.6453 50.214 38.8887 49.5599L39.6107 47.6923L39.8672 46.805L40.0511 44.4039L40.3114 42.2871C40.3708 41.7453 40.3777 41.3481 40.3321 41.0955C40.2865 40.843 40.2969 40.6413 40.3634 40.4904C40.4186 40.3143 40.421 40.2071 40.3706 40.1689C40.3481 40.1183 40.214 40.1174 39.9684 40.1661L39.333 40.5399C39.3164 40.5776 39.3024 40.5838 39.2912 40.5585C38.9566 40.7075 38.5488 40.692 38.0677 40.5121L36.9182 40.0689C36.6388 40.0417 36.4879 40.0028 36.4653 39.9522L36.0188 39.287L35.2787 38.5251C35.2325 38.1212 35.8899 37.6467 37.2508 37.1014L38.089 37.1829C38.156 37.1834 38.2313 37.165 38.315 37.1278C38.5493 37.0538 38.8917 36.7346 39.342 36.1703C39.809 35.5683 40.0784 35.1603 40.1502 34.9464C40.2499 34.7201 40.2349 34.4237 40.1051 34.057C40.0031 33.678 39.9213 33.4567 39.8596 33.3932C39.7813 33.3675 39.7087 33.3543 39.6416 33.3539L39.307 33.5028C39.2513 33.5277 39.095 33.5518 38.8381 33.5752L38.1263 33.6648L37.0781 33.4493L36.7854 33.5796L36.4161 33.4257L36.215 33.4243C36.1593 33.4491 36.0531 33.4357 35.8965 33.3842C35.7565 33.2949 35.664 33.1997 35.6189 33.0985C35.6018 32.9849 35.6934 32.8531 35.894 32.7032C35.894 32.7032 36.0809 32.6351 36.4546 32.4991L37.632 31.4291L38.3253 30.8476C38.5033 30.6471 38.7312 30.3334 39.0089 29.9066C39.3145 29.4674 39.5174 29.2103 39.6177 29.1353C40.4032 28.5734 41.5999 28.9349 43.2078 30.22C43.3021 30.0567 43.3938 29.9249 43.4828 29.8247L44.629 29.3598C44.8354 29.2982 44.9553 29.2297 44.9885 29.1543L45.9961 27.4778L46.7456 26.2346C47.1338 25.4555 47.238 24.9392 47.0583 24.6857C47.0079 24.6475 46.8513 24.5959 46.5885 24.531C46.3145 24.4408 46.1858 24.3769 46.2024 24.3391L46.1847 24.0742L46.0165 23.9217C46.3399 23.7474 46.6104 23.6421 46.8281 23.6058L47.2552 23.5521L47.782 23.2721C48.0442 23.1856 48.3821 23.1565 48.7955 23.1846C49.2369 23.2003 49.5948 23.329 49.8694 23.5705C50.1606 23.7743 50.3202 23.8701 50.3481 23.8576L50.6755 24.0302L50.9788 24.4863L51.2563 24.772C51.3239 24.9238 51.3357 25.1005 51.2918 25.3019C51.22 25.5158 51.0894 25.7104 50.9002 25.8856L49.8892 26.654L48.5444 27.7985L47.4587 28.7366L48.7987 28.5947L51.2972 29.0285C51.5802 28.5387 51.8357 28.1369 52.0636 27.8233C52.2914 27.5096 52.4137 27.3339 52.4303 27.2962L52.9956 26.0895C53.2063 25.6622 53.3113 25.3729 53.3108 25.2216L52.7033 24.0823C52.7081 23.868 52.8247 23.6796 53.0531 23.5173C53.1646 23.4676 53.4942 23.4574 54.0417 23.4864C54.6058 23.4778 55.0697 23.5441 55.4333 23.6854C55.7969 23.8267 55.9982 23.9038 56.0374 23.9167L57.0301 25.0208C56.6795 25.3588 56.4181 25.6723 56.246 25.9611C56.1018 26.2375 55.9879 26.3944 55.9042 26.4316L55.5029 26.6558L53.0322 29.211C53.413 29.4659 54.0587 29.6029 54.9692 29.6219L57.1145 29.7127L57.2826 29.8652L57.6092 29.8108L59.855 29.9023L60.3907 29.7547L61.0527 29.7783L61.5635 29.6873L63.7827 29.3814L65.2562 29.0891L66.1193 29.1141L66.9148 28.9873C67.4398 28.9658 68.0461 29.0142 68.7335 29.1325C69.4489 29.2385 69.9718 29.3998 70.3021 29.6165C70.1182 29.7287 70.004 29.8099 69.9595 29.86L69.6177 30.3305C69.5732 30.3806 69.5092 30.4243 69.4255 30.4616L67.2603 31.7894L66.633 32.0687C65.908 32.3915 65.2777 32.6266 64.742 32.7742L63.5532 33.0306C63.1907 33.192 63.0038 33.2601 62.9925 33.2348L62.2718 33.1918L61.6187 33.3007L61.1578 33.2786L60.5714 33.3123L59.9423 33.1376L59.5909 33.2486C59.4793 33.2983 59.2082 33.2522 58.7776 33.1104L57.3522 32.8356C56.9774 32.669 56.7146 32.6041 56.5639 32.6408C56.4299 32.6399 56.3516 32.6141 56.329 32.5635L56.1778 32.449C56.122 32.4738 56.0692 32.5428 56.0194 32.6559C55.9808 32.7944 56.0543 33.0345 56.2399 33.3763C56.4254 33.7181 56.4944 34.2483 56.4468 34.9667C56.4271 35.6728 56.4593 36.0829 56.5435 36.197C56.69 36.5259 56.9278 36.6474 57.257 36.5614L58.0678 36.0186C58.486 35.8324 59.0362 35.8299 59.7183 36.0113C60.4005 36.1927 60.7898 36.5044 60.8864 36.9464C60.9042 37.2114 60.8323 37.4253 60.6709 37.5881L59.6849 38.2999L59.5603 38.5828L58.6587 39.4844L58.2092 40.2758C57.8146 40.8153 57.6425 41.1041 57.6929 41.1423C57.7267 41.2182 57.9304 41.1881 58.3042 41.052C58.6667 40.8906 59.0801 40.9188 59.5445 41.1364C60.0368 41.3417 60.3278 41.4698 60.4173 41.5209L60.7705 41.8639C61.006 42.0925 61.1293 42.2195 61.1406 42.2448C61.1797 42.2577 61.2106 42.2895 61.2331 42.3401C61.4139 42.8962 61.4241 43.407 61.2639 43.8725L61.0564 44.4196L61.1362 45.6119C61.1213 46.1036 61.139 46.3686 61.1894 46.4068C61.2458 46.5333 61.4026 46.6605 61.66 46.7884C61.9341 46.8786 62.1464 46.9054 62.2971 46.8686L62.8746 46.7024L63.3444 46.8571L63.9139 46.7854L64.3161 46.7882L64.6676 46.6772C64.6788 46.7025 64.8102 46.735 65.0617 46.7746C65.3132 46.8142 65.5422 46.8032 65.7487 46.7416C65.9551 46.68 66.0862 46.6368 66.142 46.6119L67.2738 46.7902L68.6058 46.7428C68.6562 46.781 68.8994 46.8395 69.3354 46.9182L70.1237 47.1129C70.342 47.228 70.6359 47.4003 71.0054 47.6299C71.3861 47.8848 71.6385 48.1514 71.7624 48.4297C71.7796 48.5433 71.8024 48.6696 71.8308 48.8085C71.8984 48.9603 71.9435 49.0615 71.966 49.1121L72.1688 49.5676C72.2197 49.7571 72.2232 49.9526 72.1793 50.1541C72.1466 50.3808 72.0885 50.5128 72.0048 50.5501C71.9603 50.6002 71.7732 50.5926 71.4434 50.5272L70.5972 50.5401L69.0712 50.2646L66.95 49.8902L64.5851 49.306L61.8526 49.0219C61.4113 49.0062 61.0708 49.0669 60.8311 49.2039C60.608 49.3032 60.4217 49.5226 60.2722 49.862L59.8741 50.9942C59.8409 51.0696 59.6935 51.2262 59.4318 51.464C59.2093 51.7146 58.9284 52.0216 58.589 52.385C58.2775 52.7359 57.645 53.1539 56.6916 53.639L55.9717 53.8231L55.2438 54.1017C54.6524 54.2741 54.1665 54.3085 53.7863 54.2049L53.434 54.0889C53.1433 54.0364 52.9867 53.9849 52.9642 53.9343L52.8443 53.2146L52.5925 53.0993C52.6482 53.0745 52.6844 53.0432 52.7011 53.0055C52.7568 52.9807 53.0027 53.0076 53.4387 53.0864C53.9025 53.1527 54.4439 53.0178 55.0626 52.6817C55.6535 52.358 56.0436 52.1085 56.2329 51.9333C56.45 51.7456 56.8141 51.2501 57.325 50.4466C57.8638 49.6307 58.0799 49.1403 57.9731 48.9757C57.8551 48.7857 57.3741 48.6057 56.53 48.4358C55.6859 48.2659 54.6644 48.4479 53.4654 48.9817C52.9469 49.2429 52.6043 49.4864 52.4375 49.7122C52.2874 49.9003 52.207 50.0574 52.1963 50.1834L52.1578 51.11L51.7163 51.8068C51.6611 51.983 51.6646 52.1785 51.7269 52.3933C51.7778 52.5828 51.8007 52.7091 51.7953 52.7721C51.8066 52.7974 51.7763 52.917 51.7045 53.1309L51.769 54.7393C51.753 54.9283 51.6983 55.2558 51.6051 55.7217C51.551 56.2006 51.499 56.4966 51.4492 56.6097L51.1999 57.1755L51.0512 57.7419C51.0346 57.7796 50.8957 57.993 50.6346 58.3821C50.4014 58.7588 50.2513 58.9469 50.1842 58.9464C50.1006 58.9837 49.866 58.982 49.4804 58.9415C49.1061 58.9262 48.7621 58.7914 48.4483 58.537L47.7171 57.9076L46.5659 57.0104L46.0437 56.2879C45.8474 56.0721 45.752 55.9327 45.7573 55.8697L45.672 55.4529L45.4426 54.6001C45.5435 54.6764 45.6274 54.7149 45.6944 54.7153L46.7531 55.5173L47.6838 55.6941C48.1482 55.9118 48.4193 55.9578 48.497 55.8323L48.2283 55.679C48.7646 55.6828 49.0731 55.2877 49.154 54.4938C49.3746 52.2128 49.342 50.9389 49.0561 50.672C48.8545 50.5193 48.6308 50.4672 48.3852 50.5159C48.0394 50.6396 47.5552 51.128 46.9328 51.9812L46.0658 53.1857C45.6991 53.7128 45.3568 54.032 45.0388 54.1432C44.7095 54.2292 44.5028 54.2151 44.4186 54.101L44.2665 53.7594L44.0557 53.3986L43.9784 52.8873L43.5906 52.2414C43.5906 52.2414 43.6239 52.1659 43.6903 52.0151L43.8801 51.203C43.9299 51.0899 43.9993 50.9832 44.0883 50.8829L44.4728 50.6208L44.6553 50.1302C44.6553 50.1302 44.7304 50.0362 44.8805 49.8481C45.0306 49.66 45.1968 49.2828 45.379 48.7166C45.5779 48.1127 45.7216 47.6849 45.81 47.4333C45.8984 47.1817 45.8617 47.0617 45.6997 47.0731C45.5378 47.0846 45.3568 47.241 45.1569 47.5422L44.2545 48.2169L43.5033 49.006C43.2245 49.1302 43.0542 49.1605 42.9925 49.097C42.9196 49.0082 42.8689 48.8944 42.8404 48.7555L42.5701 48.1482C42.5025 47.9964 42.4848 47.7315 42.5169 47.3534C42.549 46.9753 42.6594 46.6229 42.8481 46.2964L43.6741 45.3375C43.702 45.325 43.9459 44.8223 44.4058 43.8293C44.8937 42.8239 45.0869 42.2073 44.9855 41.9796L44.7908 41.4296C44.2557 41.7285 43.787 41.8766 43.3848 41.8737C42.9714 41.8456 42.7284 41.8628 42.6561 41.9253C42.5724 41.9626 42.5003 42.1008 42.4397 42.34L42.3789 44.0042L42.1523 46.1969L41.9626 47.009L40.8827 49.5361C40.7996 49.7247 40.4967 50.1324 39.974 50.7593C39.4512 51.3862 38.903 51.9183 38.3292 52.3556L38.2608 51.9768C37.8426 52.163 37.6166 52.2182 37.5828 52.1423L37.0196 51.6654ZM47.5911 48.7322C47.8248 48.5069 48.1565 48.3137 48.586 48.1528C49.0042 47.9666 49.4287 47.9444 49.8593 48.0861C50.3178 48.2155 50.7238 48.4895 51.0772 48.9081C51.4473 49.2891 51.6436 49.5048 51.6661 49.5554L51.7764 49.9156C51.8488 49.8531 51.9016 49.7841 51.9348 49.7087L52.024 48.8959C52.0513 48.7321 52.6247 48.2191 53.7443 47.3569C53.3925 47.3922 53.004 47.3075 52.5787 47.1027C52.1701 46.8602 51.9655 46.6633 51.9649 46.512C51.9424 46.4614 51.9394 46.4172 51.956 46.3795C51.9893 46.3041 52.1646 46.1351 52.482 45.8725C52.7882 45.5846 53.1804 45.1523 53.6586 44.5755C54.1369 43.9988 54.3926 43.6727 54.4259 43.5973L54.6004 43.2013L54.8754 42.806L54.9244 42.4658L55.2823 41.8063C55.5149 41.2783 55.6618 40.9703 55.7229 40.8825C55.8119 40.7822 55.8674 40.6817 55.8894 40.581L55.9135 40.2974L56.1057 40.1664C56.1615 40.1415 56.2057 40.0157 56.2384 39.789C56.2598 39.5369 56.0187 39.2956 55.5151 39.065C55.0003 38.8092 54.6614 38.5357 54.4983 38.2445C54.3519 37.9155 54.2813 37.7196 54.2867 37.6566L53.6767 35.8363C53.5153 35.9991 53.4067 36.0929 53.351 36.1177L52.2876 36.3183C51.9696 36.4296 51.797 36.5671 51.7696 36.7308L52.25 37.472L52.353 38.1537L52.8891 40.3707L53.006 42.5469L53.1099 43.4556L52.9684 43.7005L52.8365 44.3049C52.6816 44.7074 52.3411 44.768 51.815 44.4869C51.6976 44.4482 51.5801 44.4096 51.4627 44.3709C51.334 44.3069 51.2527 44.237 51.2189 44.1611L51.1256 43.8389L50.5793 43.3999L50.5198 43.1536L50.1746 42.7161L50.3956 41.2989L50.2499 40.4088L50.1524 38.9516L49.9238 38.3257L49.8554 37.9469L49.359 37.3948L49.1313 36.996L48.8458 36.8048C48.6157 36.5131 48.4894 36.342 48.4668 36.2914C48.9301 36.2064 49.3685 36.1779 49.782 36.2061C50.1954 36.2342 50.4523 36.2108 50.5525 36.1358C50.6362 36.0986 50.7335 35.9795 50.8445 35.7785L51.5682 34.3649L52.2518 33.4239C52.4625 32.9966 52.604 32.7516 52.6764 32.6891L54.1073 32.1884C54.1239 32.1507 54.1153 32.0939 54.0815 32.018C54.0756 31.9297 53.9748 31.8533 53.7791 31.7889L52.9489 31.6128L52.6215 31.4402L52.0013 31.398L51.431 31.2427C51.1404 31.1902 50.8696 31.2198 50.6186 31.3315C50.4905 31.4189 50.3623 31.5063 50.2342 31.5936L49.6165 32.2325L47.7538 33.7894L49.1138 32.2289C49.6033 31.6775 49.859 31.3514 49.881 31.2507C49.9196 31.1122 49.9276 31.0177 49.9051 30.9671C49.9104 30.9041 49.8683 30.847 49.7788 30.7959C49.7117 30.7955 49.5694 30.8134 49.3517 30.8497C49.1227 30.8607 48.916 30.8466 48.7315 30.8075L46.5862 30.7167C46.1561 30.7263 45.7011 30.7924 45.2212 30.9151C44.7692 31.0255 44.4482 31.0926 44.2584 31.1164C44.0852 31.1026 43.979 31.0892 43.9399 31.0764C43.912 31.0888 43.6474 31.2824 43.146 31.6572L43.0979 32.2243L42.9821 32.6397L43.0915 32.7729L42.6406 35.4747L42.6321 37.7068L42.5092 38.4437L42.6131 39.3524C42.6083 39.5667 42.5783 39.762 42.5231 39.9382C42.4845 40.0766 42.4738 40.2027 42.4909 40.3163C42.5247 40.3922 42.6309 40.4055 42.8095 40.3564C43.0159 40.2948 43.1719 40.195 43.2776 40.057L44.7035 38.1943C45.0648 37.7303 45.575 37.4879 46.2341 37.4674C46.9097 37.4091 47.3398 37.3995 47.5243 37.4386C47.6975 37.4525 47.9493 37.5677 48.2796 37.7845C48.61 38.0012 48.8315 38.236 48.9441 38.489C48.9388 38.5521 48.7949 38.9042 48.5123 39.5453L48.2808 40.376L47.3585 42.4692C47.3086 42.5824 47.295 42.6643 47.3175 42.7149C47.3679 42.753 47.4323 42.785 47.5106 42.8108L48.5249 42.9504C48.9051 43.0539 49.1741 43.2828 49.3318 43.637C49.5174 43.9788 49.5324 44.2753 49.377 44.5264L48.3693 46.2029L47.6054 48.0891C47.4559 48.4286 47.4203 48.6112 47.4985 48.637L47.5911 48.7322ZM54.498 47.2487C54.9554 47.0753 55.3069 46.9643 55.5525 46.9156L56.0552 46.9192L57.2449 46.8897C57.7087 46.956 57.9825 46.9706 58.0661 46.9333C58.1053 46.9462 58.1471 46.9276 58.1916 46.8775C58.2527 46.7896 58.2513 46.4113 58.1874 45.7425L58.1769 45.156C58.1597 45.0424 58.0862 44.8022 57.9564 44.4356C57.8266 44.069 57.7643 43.8541 57.7697 43.7911L57.7422 43.1667C57.2226 43.1252 56.8934 43.2111 56.7545 43.4246L56.6049 43.764L56.0291 44.3842L56.005 44.6677C55.9723 44.8945 55.8364 45.1521 55.5973 45.4404C55.3748 45.6911 55.2303 45.8919 55.1638 46.0427C55.0861 46.1683 54.9108 46.3373 54.6378 46.5498C54.3815 46.7245 54.3124 46.9069 54.4304 47.0969L54.498 47.2487Z" fill="#08E8DA"/>
<path fill-rule="evenodd" clip-rule="evenodd" d="M55.1987 4.38408C57.266 3.46366 58.9091 2.73206 60.2663 2.31597C61.6656 1.88699 62.901 1.74701 64.1019 2.14234C65.3029 2.53767 66.1175 3.3525 66.8321 4.47734C67.5253 5.56836 68.1891 7.05939 69.0242 8.93522L86.3754 47.9066C87.2106 49.7824 87.8745 51.2734 88.2215 52.5186C88.5792 53.8023 88.6396 54.9529 88.1298 56.1099C87.62 57.2669 86.6894 58.0913 85.4343 58.8441C84.2169 59.5743 82.5737 60.3059 80.5064 61.2263L48.5999 75.432C46.5326 76.3524 44.8894 77.0841 43.5322 77.5002C42.1329 77.9291 40.8976 78.0691 39.6966 77.6738C38.4957 77.2785 37.681 76.4636 36.9664 75.3388C36.2733 74.2478 35.6094 72.7567 34.7743 70.8809L17.4231 31.9095C16.5879 30.0337 15.9241 28.5427 15.5771 27.2976C15.2193 26.0138 15.1589 24.8632 15.6687 23.7062C16.1785 22.5492 17.1092 21.7248 18.3642 20.972C19.5816 20.2418 21.2248 19.5102 23.292 18.5899L55.1987 4.38408ZM16.5635 24.0008C15.7768 25.7862 16.6351 27.7139 18.3517 31.5694L35.6484 70.4184C37.365 74.2739 38.2232 76.2016 40.0765 76.8117C41.9297 77.4218 44.0542 76.4759 48.3031 74.5842L80.075 60.4384C84.3239 58.5467 86.4483 57.6008 87.235 55.8154C88.0217 54.0299 87.1634 52.1022 85.4468 48.2467L68.1502 9.39772C66.4336 5.54223 65.5753 3.61449 63.7221 3.00443C61.8688 2.39437 59.7444 3.34023 55.4955 5.23197L23.7236 19.3777C19.4747 21.2695 17.3502 22.2153 16.5635 24.0008Z" fill="black"/>
<path fill-rule="evenodd" clip-rule="evenodd" d="M55.1987 4.38408C57.266 3.46366 58.9091 2.73206 60.2663 2.31597C61.6656 1.88699 62.901 1.74701 64.1019 2.14234C65.3029 2.53767 66.1175 3.3525 66.8321 4.47734C67.5253 5.56836 68.1891 7.05939 69.0242 8.93522L90.563 57.3122C91.3982 59.188 92.0621 60.679 92.4091 61.9241C92.7668 63.2078 92.8273 64.3585 92.3175 65.5155C91.8077 66.6725 90.877 67.4969 89.6219 68.2497C88.4046 68.9799 86.7613 69.7115 84.6941 70.6319L52.7875 84.8376C50.7202 85.758 49.077 86.4896 47.7198 86.9057C46.3206 87.3347 45.0852 87.4747 43.8843 87.0793C42.6833 86.684 41.8686 85.8692 41.154 84.7443C40.4609 83.6533 39.7971 82.1623 38.9619 80.2864L17.4231 31.9095C16.5879 30.0337 15.9241 28.5427 15.5771 27.2976C15.2193 26.0138 15.1589 24.8632 15.6687 23.7062C16.1785 22.5492 17.1092 21.7248 18.3642 20.972C19.5816 20.2418 21.2248 19.5102 23.292 18.5899L55.1987 4.38408ZM16.5635 24.0008C15.7768 25.7862 16.6351 27.7139 18.3517 31.5694L39.836 79.824C41.5526 83.6794 42.4109 85.6072 44.2641 86.2173C46.1173 86.8273 48.2418 85.8814 52.4907 83.9897L84.2626 69.844C88.5115 67.9522 90.6359 67.0064 91.4226 65.2209C92.2093 63.4355 91.351 61.5077 89.6345 57.6523L68.1502 9.39773C66.4336 5.54223 65.5753 3.61449 63.7221 3.00443C61.8688 2.39437 59.7444 3.34023 55.4955 5.23197L23.7236 19.3777C19.4747 21.2695 17.3502 22.2153 16.5635 24.0008Z" fill="black"/>
<path d="M10.5212 64.3698C10.5627 64.1965 10.6473 64.0365 10.7671 63.9045L15.9404 58.7141C16.2696 58.3862 16.573 58.1431 17.0401 58.0095C17.4666 57.8875 17.9525 57.8514 18.3613 57.961L25.5792 59.895C25.7595 59.9427 25.9238 60.0374 26.0554 60.1695C26.187 60.3017 26.2811 60.4664 26.3281 60.6469L28.1141 67.3057C28.4254 68.4664 28.0934 69.7051 27.2432 70.5544L23.3059 74.4879C22.4567 75.3362 21.2196 75.6674 20.0602 75.3567L14.6846 73.9163C13.5243 73.6054 12.6181 72.6989 12.3075 71.5385L10.5299 64.8959C10.4828 64.7241 10.4798 64.5431 10.5212 64.3698Z" fill="#D1D2E6"/>
<path fill-rule="evenodd" clip-rule="evenodd" d="M10.158 63.3251L15.3472 58.1186C15.7192 57.7482 16.1435 57.3918 16.8089 57.2015C17.3359 57.0507 17.9826 56.9895 18.5786 57.1492L25.7938 59.0825C25.7942 59.0826 25.7946 59.0827 25.795 59.0828C26.1189 59.1687 26.4142 59.339 26.6507 59.5764C26.8866 59.8133 27.0555 60.1084 27.1403 60.4317C27.1406 60.4329 27.1409 60.4341 27.1412 60.4353L28.9256 67.0879C29.3147 68.5388 28.8997 70.0872 27.8369 71.1489L23.8996 75.0823C22.8382 76.1427 21.2918 76.5567 19.8426 76.1684L14.467 74.728C13.0166 74.3393 11.8838 73.2062 11.4956 71.7556L9.7186 65.1153C9.63477 64.8078 9.62967 64.4842 9.70381 64.1742C9.77819 63.8633 9.9299 63.5762 10.1449 63.3395L10.158 63.3251ZM10.5298 64.8959L12.3074 71.5384C12.6179 72.6989 13.5241 73.6054 14.6845 73.9163L20.0601 75.3567C21.2195 75.6673 22.4565 75.3362 23.3057 74.4878L27.243 70.5544C28.0932 69.705 28.4253 68.4664 28.1139 67.3056L26.3279 60.6468C26.281 60.4663 26.1869 60.3016 26.0553 60.1695C25.9237 60.0373 25.7593 59.9426 25.579 59.8949L18.3612 57.9609C17.9523 57.8514 17.4664 57.8874 17.04 58.0094C16.5728 58.143 16.2695 58.3861 15.9402 58.714L10.7669 63.9045C10.6471 64.0364 10.5625 64.1964 10.5211 64.3697C10.4796 64.543 10.4826 64.724 10.5298 64.8959Z" fill="black"/>
<path d="M24.3997 59.5791L23.7165 59.396C19.5885 58.29 15.1838 59.4627 12.1523 62.475L11.6477 62.9765C11.5179 63.1087 11.4249 63.2725 11.3778 63.4517C11.3308 63.6309 11.3313 63.8192 11.3793 63.9982C11.4274 64.1771 11.5213 64.3404 11.6518 64.4719C11.7823 64.6034 11.9448 64.6986 12.1234 64.7481L18.3304 66.4112C18.6917 66.5062 19.0716 66.5054 19.4324 66.4087C19.7933 66.3121 20.1228 66.123 20.3883 65.8602L24.9012 61.3434C25.0308 61.2101 25.1231 61.045 25.1687 60.8646C25.2142 60.6843 25.2114 60.4952 25.1606 60.3163C25.1097 60.1374 25.0126 59.975 24.8791 59.8456C24.7455 59.7162 24.5802 59.6243 24.3997 59.5791Z" fill="white"/>
<path d="M19.2807 65.6988L14.6641 64.4666C14.4963 64.4204 14.317 64.4427 14.1656 64.5287C14.0142 64.6147 13.9032 64.7573 13.857 64.9251C13.8108 65.0929 13.8331 65.2723 13.9191 65.4236C14.0051 65.575 14.1477 65.686 14.3155 65.7322L18.932 66.9645C19.0555 66.9993 19.1679 67.0652 19.2584 67.1561C19.3489 67.2469 19.4145 67.3595 19.4488 67.4831L20.6828 72.0999C20.7046 72.1828 20.7426 72.2606 20.7946 72.3287C20.8467 72.3968 20.9117 72.4539 20.9859 72.4968C21.0601 72.5396 21.1421 72.5674 21.2271 72.5784C21.3121 72.5894 21.3984 72.5835 21.4811 72.561C21.533 72.5388 21.5821 72.5104 21.6273 72.4766C21.7567 72.4076 21.859 72.2969 21.9174 72.1625C21.9759 72.028 21.9871 71.8777 21.9492 71.736L20.7153 67.1192C20.6213 66.7776 20.4393 66.4667 20.1876 66.2175C19.9358 65.9683 19.6231 65.7894 19.2807 65.6988ZM24.264 62.1397C24.1421 62.0198 23.9779 61.9528 23.807 61.9532C23.636 61.9537 23.4722 62.0216 23.3509 62.1421L21.1474 64.3363C21.0874 64.3969 21.0399 64.4688 21.0077 64.5479C20.9755 64.6269 20.9592 64.7115 20.9598 64.7968C20.9603 64.8821 20.9777 64.9665 21.0108 65.0451C21.044 65.1237 21.0923 65.195 21.1531 65.2549C21.2568 65.3585 21.3926 65.424 21.5383 65.4406C21.684 65.4572 21.831 65.424 21.9554 65.3464C22.0072 65.3238 22.0562 65.2955 22.1016 65.262L24.2963 63.0654C24.3557 63.0029 24.402 62.9292 24.4326 62.8485C24.4631 62.7679 24.4773 62.682 24.4743 62.5958C24.4713 62.5096 24.4512 62.4249 24.4151 62.3465C24.3789 62.2682 24.3276 62.1979 24.264 62.1397ZM17.9118 71.8184C17.9919 72.0664 18.13 72.2918 18.3145 72.476C18.499 72.6601 18.7247 72.7977 18.9729 72.8773C19.4372 73.0064 19.7146 72.7339 19.5877 72.2675C19.5076 72.0194 19.3695 71.794 19.185 71.6099C19.0005 71.4258 18.7748 71.2882 18.5266 71.2086C18.0558 71.0682 17.7882 71.3576 17.9118 71.8184ZM15.1419 67.9685C15.0617 67.7204 14.9237 67.495 14.7392 67.3109C14.5547 67.1268 14.329 66.9892 14.0808 66.9096C13.6197 66.786 13.3423 67.0586 13.466 67.5194C13.5461 67.7674 13.6841 67.9928 13.8686 68.177C14.0532 68.3611 14.2788 68.4987 14.527 68.5783C15.0139 68.6945 15.2687 68.4349 15.1419 67.9685ZM17.3423 70.1309C17.2622 69.8829 17.1241 69.6575 16.9396 69.4734C16.7551 69.2893 16.5294 69.1517 16.2812 69.0721C15.8201 68.9485 15.5428 69.2211 15.6664 69.6819C15.7465 69.9299 15.8846 70.1553 16.0691 70.3394C16.2536 70.5236 16.4793 70.6611 16.7275 70.7408C17.2143 70.8569 17.4917 70.5844 17.3423 70.1309ZM18.1028 61.9097C18.172 61.8519 18.2226 61.775 18.2485 61.6886C18.2744 61.6022 18.2743 61.5102 18.2484 61.4238C18.2225 61.3375 18.1718 61.2606 18.1026 61.2028C18.0335 61.1449 17.9489 61.1086 17.8593 61.0984C17.6045 61.0438 17.3404 61.0504 17.0886 61.1175C16.8369 61.1847 16.6046 61.3106 16.4109 61.4849C16.33 61.5373 16.2677 61.614 16.2333 61.7041C16.1988 61.7941 16.1939 61.8928 16.2193 61.9858C16.2446 62.0789 16.2989 62.1614 16.3742 62.2216C16.4496 62.2817 16.5421 62.3164 16.6385 62.3204C16.8976 62.3751 17.1661 62.3663 17.4211 62.2948C17.676 62.2233 17.9099 62.0912 18.1028 61.9097ZM25.0346 63.9808C24.8604 64.175 24.7347 64.4078 24.6679 64.6601C24.6012 64.9123 24.5952 65.1768 24.6506 65.4318C24.7742 65.8926 25.1523 65.9891 25.5179 65.6356C25.6917 65.4412 25.817 65.2083 25.8838 64.9562C25.9505 64.704 25.9567 64.4397 25.9019 64.1847C25.7726 63.7271 25.3946 63.6306 25.0346 63.9808ZM23.3526 69.9214C23.1791 70.115 23.0536 70.3467 22.9863 70.5978C22.919 70.8489 22.9118 71.1124 22.9653 71.3668C23.0889 71.8276 23.467 71.9241 23.8325 71.5706C24.008 71.3775 24.1351 71.1455 24.2034 70.8936C24.2717 70.6418 24.2793 70.3774 24.2254 70.122C24.0705 69.6718 23.6957 69.5809 23.3526 69.9214Z" fill="black" fill-opacity="0.8"/>
<path d="M21.0496 62.2488C21.0237 62.3351 20.9731 62.412 20.9039 62.4699C20.711 62.6513 20.4771 62.7835 20.2222 62.855C19.9672 62.9265 19.6987 62.9353 19.4396 62.8806C19.3433 62.8765 19.2507 62.8419 19.1753 62.7818C19.1 62.7216 19.0457 62.6391 19.0204 62.546C18.995 62.453 18.9999 62.3543 19.0344 62.2642C19.0689 62.1742 19.1311 62.0974 19.212 62.0451C19.4057 61.8708 19.638 61.7449 19.8897 61.6777C20.1415 61.6105 20.4056 61.604 20.6604 61.6586C20.75 61.6688 20.8346 61.7051 20.9037 61.7629C20.9729 61.8208 21.0236 61.8976 21.0495 61.984C21.0754 62.0703 21.0755 62.1624 21.0496 62.2488Z" fill="black" fill-opacity="0.8"/>
<path d="M22.7393 69.762C22.9156 69.5759 23.136 69.4374 23.3801 69.3592L33.5575 66.6142C34.2035 66.4425 34.7562 66.3579 35.4342 66.5274C36.0532 66.6821 36.6844 66.9867 37.1149 67.4172L44.7153 75.0175C44.9056 75.2065 45.0422 75.4428 45.1111 75.702C45.18 75.9612 45.1787 76.2341 45.1074 76.4927L42.323 86.8947C42.0123 88.0556 41.1054 88.9622 39.9444 89.2727L30.5666 91.7806C29.4071 92.0907 28.1702 91.7589 27.3214 90.9102L20.4579 84.0466C19.6084 83.1972 19.2769 81.959 19.5882 80.7988L22.3717 70.4237C22.4366 70.1757 22.563 69.9481 22.7393 69.762Z" fill="#D1D2E6"/>
<path fill-rule="evenodd" clip-rule="evenodd" d="M23.1425 68.5525L33.3417 65.8015C34.0459 65.6144 34.7601 65.4921 35.6381 65.7116C36.3586 65.8917 37.1416 66.2549 37.7091 66.8224L45.3075 74.4208C45.3078 74.4211 45.3081 74.4214 45.3084 74.4217C45.6039 74.7156 45.8161 75.0828 45.9232 75.4856C46.0301 75.8878 46.0285 76.3111 45.9184 76.7124C45.9181 76.7134 45.9178 76.7145 45.9175 76.7156L43.1348 87.1114C42.7463 88.5626 41.6127 89.6959 40.1615 90.084L30.7837 92.5919C29.3343 92.9795 27.7882 92.5648 26.7272 91.5039L19.8637 84.6403C18.8019 83.5785 18.3874 82.0308 18.7765 80.5805L21.5595 70.2077C21.6604 69.8239 21.8563 69.4717 22.1293 69.1836C22.4029 68.8947 22.745 68.6797 23.1239 68.5584L23.1425 68.5525ZM22.3717 70.4231L19.5882 80.7983C19.2769 81.9585 19.6084 83.1967 20.4579 84.0461L27.3214 90.9097C28.1702 91.7584 29.4071 92.0902 30.5666 91.7801L39.9444 89.2722C41.1054 88.9617 42.0123 88.0551 42.323 86.8941L45.1074 76.4922C45.1787 76.2336 45.18 75.9607 45.1111 75.7015C45.0422 75.4423 44.9056 75.206 44.7153 75.017L37.1149 67.4166C36.6844 66.9861 36.0532 66.6816 35.4343 66.5269C34.7562 66.3574 34.2035 66.442 33.5575 66.6136L23.3801 69.3587C23.136 69.4369 22.9156 69.5754 22.7393 69.7615C22.563 69.9476 22.4366 70.1752 22.3717 70.4231Z" fill="black"/>
<path d="M43.4733 73.776L40.6139 70.9167C37.592 67.8948 33.1911 66.7081 29.0596 67.8011L25.1447 68.8368C24.8879 68.9081 24.6542 69.0453 24.4667 69.2347C24.2792 69.424 24.1444 69.6591 24.0755 69.9165C24.0067 70.174 24.0062 70.4449 24.0742 70.7026C24.1422 70.9603 24.2762 71.1958 24.4631 71.3858L30.999 77.9217C31.3808 78.2999 31.8546 78.572 32.3736 78.7112C32.8927 78.8504 33.439 78.8518 33.9588 78.7153L42.829 76.3344C43.0864 76.2616 43.3201 76.1223 43.5066 75.9304C43.693 75.7385 43.8255 75.5009 43.8909 75.2415C43.9562 74.9821 43.952 74.71 43.8787 74.4527C43.8054 74.1955 43.6655 73.9621 43.4733 73.776Z" fill="white"/>
<path d="M32.6948 77.7175L27.8302 72.8623C27.6543 72.684 27.4149 72.5828 27.1645 72.5811C26.9141 72.5793 26.6733 72.6771 26.495 72.8529C26.3167 73.0288 26.2155 73.2682 26.2138 73.5186C26.212 73.769 26.3098 74.0098 26.4856 74.1881L31.3502 79.0434C31.479 79.1755 31.5715 79.3385 31.619 79.5168C31.6664 79.695 31.6671 79.8825 31.621 80.0611L29.8376 86.6998C29.8052 86.8187 29.7967 86.9429 29.8125 87.0652C29.8283 87.1874 29.8682 87.3053 29.9298 87.4121C29.9914 87.5189 30.0736 87.6124 30.1716 87.6872C30.2695 87.7621 30.3813 87.8168 30.5006 87.8482C30.5812 87.8579 30.6627 87.8579 30.7433 87.8482C30.9541 87.8554 31.1611 87.7911 31.3307 87.6656C31.5002 87.5402 31.6223 87.361 31.677 87.1573L33.4604 80.5186C33.5889 80.0256 33.5858 79.5074 33.4515 79.0159C33.3171 78.5244 33.0562 78.0767 32.6948 77.7175ZM41.4622 76.8679C41.3967 76.6309 41.2403 76.4293 41.027 76.3069C40.8137 76.1846 40.5608 76.1513 40.3231 76.2143L36.0001 77.3627C35.8817 77.3951 35.7709 77.4506 35.674 77.5259C35.577 77.6011 35.4959 77.6948 35.4352 77.8015C35.3745 77.9081 35.3354 78.0257 35.3202 78.1475C35.305 78.2693 35.3139 78.3929 35.3465 78.5112C35.4012 78.7149 35.5233 78.8941 35.6928 79.0195C35.8624 79.145 36.0694 79.2093 36.2802 79.2021C36.3608 79.2113 36.4423 79.2113 36.5229 79.2021L40.8367 78.0443C40.9556 78.0092 41.0664 77.9506 41.1625 77.8722C41.2585 77.7937 41.338 77.6969 41.3963 77.5873C41.4545 77.4778 41.4903 77.3578 41.5017 77.2342C41.513 77.1107 41.4996 76.9862 41.4622 76.8679ZM26.5883 84.3562C26.5098 84.7228 26.5196 85.1028 26.617 85.4649C26.7144 85.827 26.8966 86.1606 27.1486 86.4383C27.6341 86.9332 28.1756 86.7931 28.353 86.1209C28.4316 85.7543 28.4218 85.3742 28.3244 85.0121C28.2269 84.6501 28.0447 84.3164 27.7928 84.0387C27.3073 83.5252 26.7657 83.6932 26.5883 84.3562ZM25.9067 77.5681C25.9853 77.2015 25.9755 76.8215 25.878 76.4594C25.7806 76.0974 25.5984 75.7637 25.3465 75.486C24.861 75.0005 24.3194 75.1405 24.142 75.8034C24.0635 76.1701 24.0733 76.5501 24.1707 76.9122C24.2681 77.2742 24.4503 77.6079 24.7023 77.8856C25.2251 78.3805 25.7293 78.2404 25.9067 77.5681ZM27.0925 81.8445C27.1711 81.4779 27.1613 81.0978 27.0639 80.7358C26.9664 80.3737 26.7842 80.04 26.5323 79.7623C26.0468 79.2768 25.5052 79.4169 25.3278 80.0798C25.2493 80.4464 25.2591 80.8265 25.3565 81.1885C25.4539 81.5506 25.6361 81.8843 25.8881 82.162C26.4109 82.6568 26.9525 82.5168 27.0925 81.8445ZM41.0981 79.7157C40.7413 79.8323 40.4174 80.0319 40.1528 80.2981C39.8882 80.5643 39.6906 80.8895 39.5762 81.2469C39.3988 81.9099 39.8003 82.302 40.5099 82.1246C40.8663 82.0073 41.1899 81.8075 41.4544 81.5414C41.7189 81.2753 41.9167 80.9504 42.0318 80.5933C42.1999 79.9304 41.7984 79.5383 41.0981 79.7157ZM34.7302 85.9061C34.3749 86.0225 34.0519 86.2209 33.7875 86.4853C33.5231 86.7497 33.3246 87.0727 33.2083 87.4281C33.0309 88.091 33.4324 88.4831 34.142 88.3057C34.4995 88.1913 34.8247 87.9937 35.0909 87.7291C35.3571 87.4645 35.5567 87.1405 35.6733 86.7838C35.804 86.1115 35.4025 85.7287 34.7302 85.9061Z" fill="black" fill-opacity="0.8"/>
<path d="M37.2855 73.9121C37.0453 74.1398 36.744 74.2917 36.4188 74.349C35.4751 74.5724 34.4916 74.5631 33.5522 74.3218C32.6128 74.0804 31.7454 73.6142 31.0239 72.963C30.7259 72.7726 30.4958 72.4919 30.367 72.1615C30.2381 71.831 30.2172 71.4678 30.3071 71.1246C30.3971 70.7813 30.5933 70.4757 30.8675 70.252C31.1416 70.0283 31.4794 69.8981 31.832 69.8802C32.7652 69.6811 33.7321 69.7073 34.6533 69.9565C35.5746 70.2057 36.4239 70.671 37.1318 71.3141C37.3971 71.5116 37.599 71.783 37.7124 72.0947C37.8259 72.4064 37.8459 72.7447 37.77 73.0678C37.6941 73.3908 37.5257 73.6844 37.2855 73.9121Z" fill="#F71FD3"/>
<defs>
<linearGradient id="paint0_linear_65_91" x1="46.0783" y1="7.84326" x2="46.0783" y2="99.9998" gradientUnits="userSpaceOnUse">
<stop stop-color="#6732FF"/>
<stop offset="1" stop-color="#25008E"/>
</linearGradient>
</defs>
</svg>
